<svg width="51" height="50" viewBox="0 0 51 50" fill="none" xmlns="http://www.w3.org/2000/svg">
<ellipse cx="25.6102" cy="25" rx="24.9811" ry="25" fill="#E2E5F2"/>
<g clip-path="url(#clip0_3_1062)">
<g opacity="0.5">
<path fill-rule="evenodd" clip-rule="evenodd" d="M25.6102 23.1244L26.7269 20.7756C27.0042 20.194 27.4851 19.3576 28.1658 18.6815C28.8353 18.0159 29.6372 17.5629 30.6064 17.5629C32.6999 17.5629 34.3536 19.3038 34.3536 21.3966C34.3536 22.9865 33.6616 24.109 32.0204 25.8211C31.5994 26.2596 31.1198 26.7335 30.589 27.2561C29.205 28.6215 27.4838 30.3204 25.6102 32.5917C23.7366 30.3204 22.0155 28.6215 20.6315 27.2561C20.1007 26.7335 19.6198 26.2583 19.2001 25.8211C17.5588 24.109 16.8669 22.9865 16.8669 21.3966C16.8669 19.3038 18.5206 17.5629 20.614 17.5629C21.5833 17.5629 22.3852 18.0159 23.0547 18.6815C23.7354 19.3576 24.2163 20.194 24.4936 20.7756L25.6102 23.1244ZM26.0999 34.0109C26.0397 34.0858 25.9647 34.146 25.8802 34.1873C25.7956 34.2286 25.7035 34.25 25.6102 34.25C25.517 34.25 25.4249 34.2286 25.3403 34.1873C25.2557 34.146 25.1807 34.0858 25.1206 34.0109C23.1209 31.5138 21.311 29.7283 19.8209 28.2591C17.2416 25.7134 15.6178 24.113 15.6178 21.3966C15.6178 18.5541 17.8536 16.25 20.614 16.25C22.6125 16.25 24.0102 17.6285 24.8658 18.8863C25.1905 19.3655 25.4379 19.8263 25.6102 20.1887C25.8263 19.7352 26.0752 19.2998 26.3547 18.8863C27.2103 17.6272 28.608 16.25 30.6064 16.25C33.3669 16.25 35.6027 18.5541 35.6027 21.3966C35.6027 24.113 33.9789 25.7134 31.3996 28.2591C29.9095 29.7296 28.0996 31.5151 26.0999 34.0096V34.0109Z" fill="#192144"/>
</g>
</g>
<defs>
<clipPath id="clip0_3_1062">
<rect width="19.9849" height="20" fill="white" transform="translate(15.6178 15)"/>
</clipPath>
</defs>
</svg>
