<svg width="62" height="62" viewBox="0 0 62 62" fill="none" xmlns="http://www.w3.org/2000/svg">
<path d="M60.3135 32C60.3135 28.0603 59.5381 24.1593 58.0316 20.5195C56.5251 16.8797 54.317 13.5726 51.5333 10.7868C48.7497 8.00104 45.445 5.79125 41.808 4.28361C38.171 2.77597 34.2728 2 30.3362 2" stroke="#FF8D30" stroke-width="3" stroke-linecap="round"/>
<path d="M28.9621 30.432C29.2821 30.72 29.4421 31.072 29.4421 31.488C29.4421 31.904 29.2821 32.264 28.9621 32.568C28.6421 32.856 28.2501 33 27.7861 33H19.8901C19.3941 33 18.9861 32.848 18.6661 32.544C18.3461 32.24 18.1861 31.864 18.1861 31.416C18.1861 30.936 18.2501 30.56 18.3781 30.288C18.6821 29.632 19.1061 28.968 19.6501 28.296C20.1941 27.608 20.6501 27.088 21.0181 26.736C21.4021 26.368 21.9941 25.824 22.7941 25.104C22.8741 25.04 23.1461 24.808 23.6101 24.408C24.0741 23.992 24.3861 23.704 24.5461 23.544C24.7061 23.368 24.9381 23.104 25.2421 22.752C25.5461 22.4 25.7541 22.064 25.8661 21.744C25.9781 21.424 26.0341 21.096 26.0341 20.76C26.0341 20.12 25.8341 19.6 25.4341 19.2C25.0501 18.784 24.4981 18.576 23.7781 18.576C23.0421 18.576 22.3701 18.704 21.7621 18.96C21.6501 19.008 21.4821 19.096 21.2581 19.224C21.0501 19.336 20.8501 19.432 20.6581 19.512C20.4661 19.576 20.2661 19.608 20.0581 19.608C19.6261 19.608 19.2421 19.472 18.9061 19.2C18.5861 18.928 18.4261 18.576 18.4261 18.144C18.4261 17.36 19.0181 16.752 20.2021 16.32C21.4021 15.872 22.6021 15.648 23.8021 15.648C25.4981 15.648 26.8421 16.112 27.8341 17.04C28.8421 17.952 29.3461 19.112 29.3461 20.52C29.3461 22.232 28.7141 23.744 27.4501 25.056C27.1301 25.392 26.3381 26.128 25.0741 27.264C23.8101 28.4 22.9301 29.312 22.4341 30H27.7861C28.2501 30 28.6421 30.144 28.9621 30.432ZM42.259 27.36C42.259 28.928 41.787 30.296 40.843 31.464C39.899 32.616 38.515 33.192 36.691 33.192C36.307 33.192 35.859 33.16 35.347 33.096C34.835 33.048 34.251 32.952 33.595 32.808C32.955 32.648 32.411 32.408 31.963 32.088C31.531 31.752 31.315 31.352 31.315 30.888C31.315 30.488 31.467 30.144 31.771 29.856C32.091 29.552 32.475 29.4 32.923 29.4C33.179 29.4 33.627 29.552 34.267 29.856C34.923 30.144 35.547 30.288 36.139 30.288C37.131 30.288 37.843 30.024 38.275 29.496C38.707 28.952 38.923 28.272 38.923 27.456C38.923 26.608 38.707 25.968 38.275 25.536C37.859 25.088 37.307 24.864 36.619 24.864C36.139 24.864 35.699 24.968 35.299 25.176C34.659 25.672 34.083 25.92 33.571 25.92C33.091 25.92 32.683 25.768 32.347 25.464C32.027 25.16 31.875 24.768 31.891 24.288L32.131 17.664C32.147 17.184 32.331 16.8 32.683 16.512C33.051 16.208 33.475 16.056 33.955 16.056H39.739C40.235 16.056 40.659 16.184 41.011 16.44C41.379 16.68 41.563 17.056 41.563 17.568C41.563 18.064 41.379 18.432 41.011 18.672C40.659 18.912 40.235 19.032 39.739 19.032H35.251L35.107 22.152C35.539 22.024 36.059 21.96 36.667 21.96C38.331 21.96 39.675 22.448 40.699 23.424C41.739 24.384 42.259 25.696 42.259 27.36Z" fill="#1D2E5B"/>
<line opacity="0.1" x1="13.349" y1="38.5" x2="47.3233" y2="38.5" stroke="black"/>
<path opacity="0.4" d="M18.3821 50.684V42.396C18.3821 42.2467 18.4334 42.1207 18.5361 42.018C18.6481 41.906 18.7787 41.85 18.9281 41.85C19.0867 41.85 19.2174 41.906 19.3201 42.018C19.4227 42.1207 19.4741 42.2467 19.4741 42.396V50.684C19.4741 50.992 19.5394 51.2113 19.6701 51.342C19.7354 51.426 19.7681 51.5147 19.7681 51.608C19.7681 51.748 19.7167 51.8693 19.6141 51.972C19.5207 52.0653 19.4041 52.112 19.2641 52.112C18.6761 52.112 18.3821 51.636 18.3821 50.684ZM23.7796 51.146C24.1809 51.146 24.6663 51.0153 25.2356 50.754C25.2916 50.726 25.3569 50.712 25.4316 50.712C25.5716 50.712 25.6883 50.7633 25.7816 50.866C25.8749 50.9593 25.9216 51.0713 25.9216 51.202C25.9216 51.51 25.6696 51.7387 25.1656 51.888C24.6616 52.0373 24.1576 52.112 23.6536 52.112C22.8789 52.112 22.2676 51.8973 21.8196 51.468C21.3809 51.0293 21.1616 50.4693 21.1616 49.788V47.17C21.1616 46.47 21.3856 45.9007 21.8336 45.462C22.2816 45.0233 22.9116 44.804 23.7236 44.804C24.4796 44.804 25.0536 45.0093 25.4456 45.42C25.8469 45.8213 26.0476 46.3767 26.0476 47.086C26.0476 48.4673 25.2589 49.158 23.6816 49.158C23.2243 49.158 22.7483 49.116 22.2536 49.032V49.858C22.2536 50.2593 22.3843 50.5767 22.6456 50.81C22.9069 51.034 23.2849 51.146 23.7796 51.146ZM24.9696 47.086C24.9696 46.2273 24.5449 45.798 23.6956 45.798C23.2476 45.798 22.8929 45.9147 22.6316 46.148C22.3796 46.372 22.2536 46.68 22.2536 47.072V48.136C22.7389 48.2013 23.2289 48.234 23.7236 48.234C24.2089 48.234 24.5356 48.1313 24.7036 47.926C24.8809 47.7113 24.9696 47.4313 24.9696 47.086ZM32.2716 45.532L30.3676 51.454C30.2183 51.8927 29.9803 52.112 29.6536 52.112C29.4669 52.112 29.3176 52.0653 29.2056 51.972C29.1029 51.8693 29.0143 51.7013 28.9396 51.468L26.9936 45.49C26.9376 45.3313 26.9703 45.1867 27.0916 45.056C27.2129 44.916 27.3576 44.846 27.5256 44.846C27.7683 44.846 27.9316 44.9673 28.0156 45.21L29.6536 50.488L31.2636 45.21C31.3476 44.9673 31.5109 44.846 31.7536 44.846C31.9216 44.846 32.0616 44.916 32.1736 45.056C32.2856 45.196 32.3183 45.3547 32.2716 45.532ZM35.8245 51.146C36.2259 51.146 36.7112 51.0153 37.2805 50.754C37.3365 50.726 37.4019 50.712 37.4765 50.712C37.6165 50.712 37.7332 50.7633 37.8265 50.866C37.9199 50.9593 37.9665 51.0713 37.9665 51.202C37.9665 51.51 37.7145 51.7387 37.2105 51.888C36.7065 52.0373 36.2025 52.112 35.6985 52.112C34.9239 52.112 34.3125 51.8973 33.8645 51.468C33.4259 51.0293 33.2065 50.4693 33.2065 49.788V47.17C33.2065 46.47 33.4305 45.9007 33.8785 45.462C34.3265 45.0233 34.9565 44.804 35.7685 44.804C36.5245 44.804 37.0985 45.0093 37.4905 45.42C37.8919 45.8213 38.0925 46.3767 38.0925 47.086C38.0925 48.4673 37.3039 49.158 35.7265 49.158C35.2692 49.158 34.7932 49.116 34.2985 49.032V49.858C34.2985 50.2593 34.4292 50.5767 34.6905 50.81C34.9519 51.034 35.3299 51.146 35.8245 51.146ZM37.0145 47.086C37.0145 46.2273 36.5899 45.798 35.7405 45.798C35.2925 45.798 34.9379 45.9147 34.6765 46.148C34.4245 46.372 34.2985 46.68 34.2985 47.072V48.136C34.7839 48.2013 35.2739 48.234 35.7685 48.234C36.2539 48.234 36.5805 48.1313 36.7485 47.926C36.9259 47.7113 37.0145 47.4313 37.0145 47.086ZM39.5051 50.684V42.396C39.5051 42.2467 39.5564 42.1207 39.6591 42.018C39.7711 41.906 39.9018 41.85 40.0511 41.85C40.2098 41.85 40.3404 41.906 40.4431 42.018C40.5458 42.1207 40.5971 42.2467 40.5971 42.396V50.684C40.5971 50.992 40.6624 51.2113 40.7931 51.342C40.8584 51.426 40.8911 51.5147 40.8911 51.608C40.8911 51.748 40.8398 51.8693 40.7371 51.972C40.6438 52.0653 40.5271 52.112 40.3871 52.112C39.7991 52.112 39.5051 51.636 39.5051 50.684Z" fill="black"/>
</svg>
