<svg width="62" height="64" viewBox="0 0 62 64" fill="none" xmlns="http://www.w3.org/2000/svg">
<path d="M30.3362 62C38.2866 62 45.9115 58.8393 51.5333 53.2132C57.1552 47.5871 60.3135 39.9565 60.3135 32C60.3135 24.0435 57.1552 16.4129 51.5333 10.7868C45.9115 5.16071 38.2867 2 30.3362 2" stroke="#FF8D30" stroke-width="3" stroke-linecap="round"/>
<path d="M29.2981 27.36C29.2981 28.928 28.8261 30.296 27.8821 31.464C26.9381 32.616 25.5541 33.192 23.7301 33.192C23.3461 33.192 22.8981 33.16 22.3861 33.096C21.8741 33.048 21.2901 32.952 20.6341 32.808C19.9941 32.648 19.4501 32.408 19.0021 32.088C18.5701 31.752 18.3541 31.352 18.3541 30.888C18.3541 30.488 18.5061 30.144 18.8101 29.856C19.1301 29.552 19.5141 29.4 19.9621 29.4C20.2181 29.4 20.6661 29.552 21.3061 29.856C21.9621 30.144 22.5861 30.288 23.1781 30.288C24.1701 30.288 24.8821 30.024 25.3141 29.496C25.7461 28.952 25.9621 28.272 25.9621 27.456C25.9621 26.608 25.7461 25.968 25.3141 25.536C24.8981 25.088 24.3461 24.864 23.6581 24.864C23.1781 24.864 22.7381 24.968 22.3381 25.176C21.6981 25.672 21.1221 25.92 20.6101 25.92C20.1301 25.92 19.7221 25.768 19.3861 25.464C19.0661 25.16 18.9141 24.768 18.9301 24.288L19.1701 17.664C19.1861 17.184 19.3701 16.8 19.7221 16.512C20.0901 16.208 20.5141 16.056 20.9941 16.056H26.7781C27.2741 16.056 27.6981 16.184 28.0501 16.44C28.4181 16.68 28.6021 17.056 28.6021 17.568C28.6021 18.064 28.4181 18.432 28.0501 18.672C27.6981 18.912 27.2741 19.032 26.7781 19.032H22.2901L22.1461 22.152C22.5781 22.024 23.0981 21.96 23.7061 21.96C25.3701 21.96 26.7141 22.448 27.7381 23.424C28.7781 24.384 29.2981 25.696 29.2981 27.36ZM38.995 21.192C38.995 19.448 38.259 18.576 36.787 18.576C35.315 18.576 34.579 19.448 34.579 21.192V27.96C34.579 28.664 34.771 29.224 35.155 29.64C35.539 30.056 36.083 30.264 36.787 30.264C37.491 30.264 38.035 30.056 38.419 29.64C38.803 29.224 38.995 28.664 38.995 27.96V21.192ZM32.635 17.256C33.563 16.184 34.947 15.648 36.787 15.648C38.627 15.648 40.011 16.184 40.939 17.256C41.867 18.312 42.331 19.68 42.331 21.36V27.96C42.331 29.48 41.835 30.736 40.843 31.728C39.867 32.72 38.515 33.216 36.787 33.216C35.059 33.216 33.699 32.72 32.707 31.728C31.731 30.736 31.243 29.48 31.243 27.96V21.36C31.243 19.68 31.707 18.312 32.635 17.256Z" fill="#1D2E5B"/>
<line opacity="0.1" x1="13.349" y1="38.5" x2="47.3233" y2="38.5" stroke="black"/>
<g opacity="0.4" filter="url(#filter0_dd_3_1275)">
<path d="M18.3821 50.684V42.396C18.3821 42.2467 18.4334 42.1207 18.5361 42.018C18.6481 41.906 18.7787 41.85 18.9281 41.85C19.0867 41.85 19.2174 41.906 19.3201 42.018C19.4227 42.1207 19.4741 42.2467 19.4741 42.396V50.684C19.4741 50.992 19.5394 51.2113 19.6701 51.342C19.7354 51.426 19.7681 51.5147 19.7681 51.608C19.7681 51.748 19.7167 51.8693 19.6141 51.972C19.5207 52.0653 19.4041 52.112 19.2641 52.112C18.6761 52.112 18.3821 51.636 18.3821 50.684ZM23.7796 51.146C24.1809 51.146 24.6663 51.0153 25.2356 50.754C25.2916 50.726 25.3569 50.712 25.4316 50.712C25.5716 50.712 25.6883 50.7633 25.7816 50.866C25.8749 50.9593 25.9216 51.0713 25.9216 51.202C25.9216 51.51 25.6696 51.7387 25.1656 51.888C24.6616 52.0373 24.1576 52.112 23.6536 52.112C22.8789 52.112 22.2676 51.8973 21.8196 51.468C21.3809 51.0293 21.1616 50.4693 21.1616 49.788V47.17C21.1616 46.47 21.3856 45.9007 21.8336 45.462C22.2816 45.0233 22.9116 44.804 23.7236 44.804C24.4796 44.804 25.0536 45.0093 25.4456 45.42C25.8469 45.8213 26.0476 46.3767 26.0476 47.086C26.0476 48.4673 25.2589 49.158 23.6816 49.158C23.2243 49.158 22.7483 49.116 22.2536 49.032V49.858C22.2536 50.2593 22.3843 50.5767 22.6456 50.81C22.9069 51.034 23.2849 51.146 23.7796 51.146ZM24.9696 47.086C24.9696 46.2273 24.5449 45.798 23.6956 45.798C23.2476 45.798 22.8929 45.9147 22.6316 46.148C22.3796 46.372 22.2536 46.68 22.2536 47.072V48.136C22.7389 48.2013 23.2289 48.234 23.7236 48.234C24.2089 48.234 24.5356 48.1313 24.7036 47.926C24.8809 47.7113 24.9696 47.4313 24.9696 47.086ZM32.2716 45.532L30.3676 51.454C30.2183 51.8927 29.9803 52.112 29.6536 52.112C29.4669 52.112 29.3176 52.0653 29.2056 51.972C29.1029 51.8693 29.0143 51.7013 28.9396 51.468L26.9936 45.49C26.9376 45.3313 26.9703 45.1867 27.0916 45.056C27.2129 44.916 27.3576 44.846 27.5256 44.846C27.7683 44.846 27.9316 44.9673 28.0156 45.21L29.6536 50.488L31.2636 45.21C31.3476 44.9673 31.5109 44.846 31.7536 44.846C31.9216 44.846 32.0616 44.916 32.1736 45.056C32.2856 45.196 32.3183 45.3547 32.2716 45.532ZM35.8245 51.146C36.2259 51.146 36.7112 51.0153 37.2805 50.754C37.3365 50.726 37.4019 50.712 37.4765 50.712C37.6165 50.712 37.7332 50.7633 37.8265 50.866C37.9199 50.9593 37.9665 51.0713 37.9665 51.202C37.9665 51.51 37.7145 51.7387 37.2105 51.888C36.7065 52.0373 36.2025 52.112 35.6985 52.112C34.9239 52.112 34.3125 51.8973 33.8645 51.468C33.4259 51.0293 33.2065 50.4693 33.2065 49.788V47.17C33.2065 46.47 33.4305 45.9007 33.8785 45.462C34.3265 45.0233 34.9565 44.804 35.7685 44.804C36.5245 44.804 37.0985 45.0093 37.4905 45.42C37.8919 45.8213 38.0925 46.3767 38.0925 47.086C38.0925 48.4673 37.3039 49.158 35.7265 49.158C35.2692 49.158 34.7932 49.116 34.2985 49.032V49.858C34.2985 50.2593 34.4292 50.5767 34.6905 50.81C34.9519 51.034 35.3299 51.146 35.8245 51.146ZM37.0145 47.086C37.0145 46.2273 36.5899 45.798 35.7405 45.798C35.2925 45.798 34.9379 45.9147 34.6765 46.148C34.4245 46.372 34.2985 46.68 34.2985 47.072V48.136C34.7839 48.2013 35.2739 48.234 35.7685 48.234C36.2539 48.234 36.5805 48.1313 36.7485 47.926C36.9259 47.7113 37.0145 47.4313 37.0145 47.086ZM39.5051 50.684V42.396C39.5051 42.2467 39.5564 42.1207 39.6591 42.018C39.7711 41.906 39.9018 41.85 40.0511 41.85C40.2098 41.85 40.3404 41.906 40.4431 42.018C40.5458 42.1207 40.5971 42.2467 40.5971 42.396V50.684C40.5971 50.992 40.6624 51.2113 40.7931 51.342C40.8584 51.426 40.8911 51.5147 40.8911 51.608C40.8911 51.748 40.8398 51.8693 40.7371 51.972C40.6438 52.0653 40.5271 52.112 40.3871 52.112C39.7991 52.112 39.5051 51.636 39.5051 50.684Z" fill="black"/>
<path d="M18.3821 50.684V42.396C18.3821 42.2467 18.4334 42.1207 18.5361 42.018C18.6481 41.906 18.7787 41.85 18.9281 41.85C19.0867 41.85 19.2174 41.906 19.3201 42.018C19.4227 42.1207 19.4741 42.2467 19.4741 42.396V50.684C19.4741 50.992 19.5394 51.2113 19.6701 51.342C19.7354 51.426 19.7681 51.5147 19.7681 51.608C19.7681 51.748 19.7167 51.8693 19.6141 51.972C19.5207 52.0653 19.4041 52.112 19.2641 52.112C18.6761 52.112 18.3821 51.636 18.3821 50.684ZM23.7796 51.146C24.1809 51.146 24.6663 51.0153 25.2356 50.754C25.2916 50.726 25.3569 50.712 25.4316 50.712C25.5716 50.712 25.6883 50.7633 25.7816 50.866C25.8749 50.9593 25.9216 51.0713 25.9216 51.202C25.9216 51.51 25.6696 51.7387 25.1656 51.888C24.6616 52.0373 24.1576 52.112 23.6536 52.112C22.8789 52.112 22.2676 51.8973 21.8196 51.468C21.3809 51.0293 21.1616 50.4693 21.1616 49.788V47.17C21.1616 46.47 21.3856 45.9007 21.8336 45.462C22.2816 45.0233 22.9116 44.804 23.7236 44.804C24.4796 44.804 25.0536 45.0093 25.4456 45.42C25.8469 45.8213 26.0476 46.3767 26.0476 47.086C26.0476 48.4673 25.2589 49.158 23.6816 49.158C23.2243 49.158 22.7483 49.116 22.2536 49.032V49.858C22.2536 50.2593 22.3843 50.5767 22.6456 50.81C22.9069 51.034 23.2849 51.146 23.7796 51.146ZM24.9696 47.086C24.9696 46.2273 24.5449 45.798 23.6956 45.798C23.2476 45.798 22.8929 45.9147 22.6316 46.148C22.3796 46.372 22.2536 46.68 22.2536 47.072V48.136C22.7389 48.2013 23.2289 48.234 23.7236 48.234C24.2089 48.234 24.5356 48.1313 24.7036 47.926C24.8809 47.7113 24.9696 47.4313 24.9696 47.086ZM32.2716 45.532L30.3676 51.454C30.2183 51.8927 29.9803 52.112 29.6536 52.112C29.4669 52.112 29.3176 52.0653 29.2056 51.972C29.1029 51.8693 29.0143 51.7013 28.9396 51.468L26.9936 45.49C26.9376 45.3313 26.9703 45.1867 27.0916 45.056C27.2129 44.916 27.3576 44.846 27.5256 44.846C27.7683 44.846 27.9316 44.9673 28.0156 45.21L29.6536 50.488L31.2636 45.21C31.3476 44.9673 31.5109 44.846 31.7536 44.846C31.9216 44.846 32.0616 44.916 32.1736 45.056C32.2856 45.196 32.3183 45.3547 32.2716 45.532ZM35.8245 51.146C36.2259 51.146 36.7112 51.0153 37.2805 50.754C37.3365 50.726 37.4019 50.712 37.4765 50.712C37.6165 50.712 37.7332 50.7633 37.8265 50.866C37.9199 50.9593 37.9665 51.0713 37.9665 51.202C37.9665 51.51 37.7145 51.7387 37.2105 51.888C36.7065 52.0373 36.2025 52.112 35.6985 52.112C34.9239 52.112 34.3125 51.8973 33.8645 51.468C33.4259 51.0293 33.2065 50.4693 33.2065 49.788V47.17C33.2065 46.47 33.4305 45.9007 33.8785 45.462C34.3265 45.0233 34.9565 44.804 35.7685 44.804C36.5245 44.804 37.0985 45.0093 37.4905 45.42C37.8919 45.8213 38.0925 46.3767 38.0925 47.086C38.0925 48.4673 37.3039 49.158 35.7265 49.158C35.2692 49.158 34.7932 49.116 34.2985 49.032V49.858C34.2985 50.2593 34.4292 50.5767 34.6905 50.81C34.9519 51.034 35.3299 51.146 35.8245 51.146ZM37.0145 47.086C37.0145 46.2273 36.5899 45.798 35.7405 45.798C35.2925 45.798 34.9379 45.9147 34.6765 46.148C34.4245 46.372 34.2985 46.68 34.2985 47.072V48.136C34.7839 48.2013 35.2739 48.234 35.7685 48.234C36.2539 48.234 36.5805 48.1313 36.7485 47.926C36.9259 47.7113 37.0145 47.4313 37.0145 47.086ZM39.5051 50.684V42.396C39.5051 42.2467 39.5564 42.1207 39.6591 42.018C39.7711 41.906 39.9018 41.85 40.0511 41.85C40.2098 41.85 40.3404 41.906 40.4431 42.018C40.5458 42.1207 40.5971 42.2467 40.5971 42.396V50.684C40.5971 50.992 40.6624 51.2113 40.7931 51.342C40.8584 51.426 40.8911 51.5147 40.8911 51.608C40.8911 51.748 40.8398 51.8693 40.7371 51.972C40.6438 52.0653 40.5271 52.112 40.3871 52.112C39.7991 52.112 39.5051 51.636 39.5051 50.684Z" fill="black" fill-opacity="0.2"/>
</g>
<defs>
<filter id="filter0_dd_3_1275" x="14.3821" y="41.85" width="30.509" height="18.2621" filterUnits="userSpaceOnUse" color-interpolation-filters="sRGB">
<feFlood flood-opacity="0" result="BackgroundImageFix"/>
<feColorMatrix in="SourceAlpha" type="matrix" values="0 0 0 0 0 0 0 0 0 0 0 0 0 0 0 0 0 0 127 0" result="hardAlpha"/>
<feOffset dy="4"/>
<feGaussianBlur stdDeviation="2"/>
<feComposite in2="hardAlpha" operator="out"/>
<feColorMatrix type="matrix" values="0 0 0 0 0 0 0 0 0 0 0 0 0 0 0 0 0 0 0.25 0"/>
<feBlend mode="normal" in2="BackgroundImageFix" result="effect1_dropShadow_3_1275"/>
<feColorMatrix in="SourceAlpha" type="matrix" values="0 0 0 0 0 0 0 0 0 0 0 0 0 0 0 0 0 0 127 0" result="hardAlpha"/>
<feOffset dy="4"/>
<feGaussianBlur stdDeviation="2"/>
<feComposite in2="hardAlpha" operator="out"/>
<feColorMatrix type="matrix" values="0 0 0 0 0 0 0 0 0 0 0 0 0 0 0 0 0 0 0.25 0"/>
<feBlend mode="normal" in2="effect1_dropShadow_3_1275" result="effect2_dropShadow_3_1275"/>
<feBlend mode="normal" in="SourceGraphic" in2="effect2_dropShadow_3_1275" result="shape"/>
</filter>
</defs>
</svg>
