<svg width="64" height="64" viewBox="0 0 64 64" fill="none" xmlns="http://www.w3.org/2000/svg">
<path d="M29.2372 2.16073C21.5105 2.9644 14.3973 6.73843 9.39643 12.6876C4.39558 18.6367 1.89768 26.2963 2.42911 34.0523C2.96054 41.8083 6.47979 49.055 12.2453 54.2653C18.0108 59.4756 25.5722 62.2426 33.3362 61.9833C41.1002 61.724 48.4604 58.4585 53.8659 52.875C59.2714 47.2916 62.3 39.8262 62.3134 32.052C62.3269 24.2778 59.3242 16.8019 53.9381 11.1997C48.5519 5.59756 41.203 2.3066 33.44 2.02034" stroke="#FF8D30" stroke-width="3" stroke-linecap="round"/>
<path d="M25.2501 30.312C26.2901 30.328 27.0021 30.008 27.3861 29.352C27.7861 28.68 28.0341 27.68 28.1301 26.352C27.3301 26.832 26.4661 27.072 25.5381 27.072C23.9861 27.072 22.6901 26.6 21.6501 25.656C20.6101 24.696 20.0901 23.344 20.0901 21.6C20.0901 19.952 20.5861 18.584 21.5781 17.496C22.5701 16.408 23.9861 15.864 25.8261 15.864C26.8981 15.864 27.8181 16.064 28.5861 16.464C29.3541 16.864 29.9461 17.448 30.3621 18.216C30.7941 18.984 31.0981 19.848 31.2741 20.808C31.4661 21.768 31.5621 22.872 31.5621 24.12C31.5621 27.08 31.0581 29.336 30.0501 30.888C29.0581 32.44 27.5541 33.216 25.5381 33.216C25.2021 33.216 24.8341 33.192 24.4341 33.144C24.0501 33.112 23.5941 33.04 23.0661 32.928C22.5541 32.8 22.1141 32.6 21.7461 32.328C21.3941 32.056 21.1941 31.728 21.1461 31.344C21.0981 30.96 21.2101 30.616 21.4821 30.312C21.7701 30.008 22.1541 29.856 22.6341 29.856C22.8741 29.856 23.2661 29.928 23.8101 30.072C24.3701 30.216 24.8501 30.296 25.2501 30.312ZM28.2021 23.256V22.968C28.2021 20.264 27.3701 18.912 25.7061 18.912C24.9061 18.912 24.3221 19.168 23.9541 19.68C23.6021 20.176 23.4261 20.808 23.4261 21.576C23.4261 23.24 24.2101 24.072 25.7781 24.072C26.8021 24.072 27.6101 23.8 28.2021 23.256ZM38.211 30.312C39.251 30.328 39.963 30.008 40.347 29.352C40.747 28.68 40.995 27.68 41.091 26.352C40.291 26.832 39.427 27.072 38.499 27.072C36.947 27.072 35.651 26.6 34.611 25.656C33.571 24.696 33.051 23.344 33.051 21.6C33.051 19.952 33.547 18.584 34.539 17.496C35.531 16.408 36.947 15.864 38.787 15.864C39.859 15.864 40.779 16.064 41.547 16.464C42.315 16.864 42.907 17.448 43.323 18.216C43.755 18.984 44.059 19.848 44.235 20.808C44.427 21.768 44.523 22.872 44.523 24.12C44.523 27.08 44.019 29.336 43.011 30.888C42.019 32.44 40.515 33.216 38.499 33.216C38.163 33.216 37.795 33.192 37.395 33.144C37.011 33.112 36.555 33.04 36.027 32.928C35.515 32.8 35.075 32.6 34.707 32.328C34.355 32.056 34.155 31.728 34.107 31.344C34.059 30.96 34.171 30.616 34.443 30.312C34.731 30.008 35.115 29.856 35.595 29.856C35.835 29.856 36.227 29.928 36.771 30.072C37.331 30.216 37.811 30.296 38.211 30.312ZM41.163 23.256V22.968C41.163 20.264 40.331 18.912 38.667 18.912C37.867 18.912 37.283 19.168 36.915 19.68C36.563 20.176 36.387 20.808 36.387 21.576C36.387 23.24 37.171 24.072 38.739 24.072C39.763 24.072 40.571 23.8 41.163 23.256Z" fill="#1D2E5B"/>
<line opacity="0.1" x1="15.349" y1="38.5" x2="49.3233" y2="38.5" stroke="black"/>
<path opacity="0.4" d="M20.3821 50.684V42.396C20.3821 42.2467 20.4334 42.1207 20.5361 42.018C20.6481 41.906 20.7787 41.85 20.9281 41.85C21.0867 41.85 21.2174 41.906 21.3201 42.018C21.4227 42.1207 21.4741 42.2467 21.4741 42.396V50.684C21.4741 50.992 21.5394 51.2113 21.6701 51.342C21.7354 51.426 21.7681 51.5147 21.7681 51.608C21.7681 51.748 21.7167 51.8693 21.6141 51.972C21.5207 52.0653 21.4041 52.112 21.2641 52.112C20.6761 52.112 20.3821 51.636 20.3821 50.684ZM25.7796 51.146C26.1809 51.146 26.6663 51.0153 27.2356 50.754C27.2916 50.726 27.3569 50.712 27.4316 50.712C27.5716 50.712 27.6883 50.7633 27.7816 50.866C27.8749 50.9593 27.9216 51.0713 27.9216 51.202C27.9216 51.51 27.6696 51.7387 27.1656 51.888C26.6616 52.0373 26.1576 52.112 25.6536 52.112C24.8789 52.112 24.2676 51.8973 23.8196 51.468C23.3809 51.0293 23.1616 50.4693 23.1616 49.788V47.17C23.1616 46.47 23.3856 45.9007 23.8336 45.462C24.2816 45.0233 24.9116 44.804 25.7236 44.804C26.4796 44.804 27.0536 45.0093 27.4456 45.42C27.8469 45.8213 28.0476 46.3767 28.0476 47.086C28.0476 48.4673 27.2589 49.158 25.6816 49.158C25.2243 49.158 24.7483 49.116 24.2536 49.032V49.858C24.2536 50.2593 24.3843 50.5767 24.6456 50.81C24.9069 51.034 25.2849 51.146 25.7796 51.146ZM26.9696 47.086C26.9696 46.2273 26.5449 45.798 25.6956 45.798C25.2476 45.798 24.8929 45.9147 24.6316 46.148C24.3796 46.372 24.2536 46.68 24.2536 47.072V48.136C24.7389 48.2013 25.2289 48.234 25.7236 48.234C26.2089 48.234 26.5356 48.1313 26.7036 47.926C26.8809 47.7113 26.9696 47.4313 26.9696 47.086ZM34.2716 45.532L32.3676 51.454C32.2183 51.8927 31.9803 52.112 31.6536 52.112C31.4669 52.112 31.3176 52.0653 31.2056 51.972C31.1029 51.8693 31.0143 51.7013 30.9396 51.468L28.9936 45.49C28.9376 45.3313 28.9703 45.1867 29.0916 45.056C29.2129 44.916 29.3576 44.846 29.5256 44.846C29.7683 44.846 29.9316 44.9673 30.0156 45.21L31.6536 50.488L33.2636 45.21C33.3476 44.9673 33.5109 44.846 33.7536 44.846C33.9216 44.846 34.0616 44.916 34.1736 45.056C34.2856 45.196 34.3183 45.3547 34.2716 45.532ZM37.8245 51.146C38.2259 51.146 38.7112 51.0153 39.2805 50.754C39.3365 50.726 39.4019 50.712 39.4765 50.712C39.6165 50.712 39.7332 50.7633 39.8265 50.866C39.9199 50.9593 39.9665 51.0713 39.9665 51.202C39.9665 51.51 39.7145 51.7387 39.2105 51.888C38.7065 52.0373 38.2025 52.112 37.6985 52.112C36.9239 52.112 36.3125 51.8973 35.8645 51.468C35.4259 51.0293 35.2065 50.4693 35.2065 49.788V47.17C35.2065 46.47 35.4305 45.9007 35.8785 45.462C36.3265 45.0233 36.9565 44.804 37.7685 44.804C38.5245 44.804 39.0985 45.0093 39.4905 45.42C39.8919 45.8213 40.0925 46.3767 40.0925 47.086C40.0925 48.4673 39.3039 49.158 37.7265 49.158C37.2692 49.158 36.7932 49.116 36.2985 49.032V49.858C36.2985 50.2593 36.4292 50.5767 36.6905 50.81C36.9519 51.034 37.3299 51.146 37.8245 51.146ZM39.0145 47.086C39.0145 46.2273 38.5899 45.798 37.7405 45.798C37.2925 45.798 36.9379 45.9147 36.6765 46.148C36.4245 46.372 36.2985 46.68 36.2985 47.072V48.136C36.7839 48.2013 37.2739 48.234 37.7685 48.234C38.2539 48.234 38.5805 48.1313 38.7485 47.926C38.9259 47.7113 39.0145 47.4313 39.0145 47.086ZM41.5051 50.684V42.396C41.5051 42.2467 41.5564 42.1207 41.6591 42.018C41.7711 41.906 41.9018 41.85 42.0511 41.85C42.2098 41.85 42.3404 41.906 42.4431 42.018C42.5458 42.1207 42.5971 42.2467 42.5971 42.396V50.684C42.5971 50.992 42.6624 51.2113 42.7931 51.342C42.8584 51.426 42.8911 51.5147 42.8911 51.608C42.8911 51.748 42.8398 51.8693 42.7371 51.972C42.6438 52.0653 42.5271 52.112 42.3871 52.112C41.7991 52.112 41.5051 51.636 41.5051 50.684Z" fill="black"/>
</svg>
