<svg width="46" height="45" viewBox="0 0 46 45" fill="none" xmlns="http://www.w3.org/2000/svg">
<path d="M23.5142 1.50818C27.9496 1.63199 32.2318 3.15753 35.7465 5.86592C39.2611 8.57431 41.8276 12.3264 43.0776 16.5838C44.3277 20.8412 44.1971 25.3851 42.7046 29.5637C41.2121 33.7423 38.4344 37.3407 34.77 39.8428C31.1056 42.3449 26.7429 43.6219 22.3077 43.4908C17.8725 43.3597 13.5928 41.8271 10.0826 39.113C6.57244 36.3988 4.01216 32.6425 2.76912 28.3831C1.52607 24.1236 1.66414 19.5799 3.16352 15.4038" stroke="#FF8D30" stroke-width="3" stroke-linecap="round"/>
<path d="M22.9322 25.7971C22.9322 27.3011 22.3642 28.5411 21.2282 29.5171C20.1082 30.4931 18.6682 30.9811 16.9082 30.9811C15.1642 30.9811 13.7162 30.5011 12.5642 29.5411C11.4282 28.5811 10.8602 27.3651 10.8602 25.8931C10.8602 24.2131 11.6522 22.8611 13.2362 21.8371C12.0522 20.9411 11.4602 19.7731 11.4602 18.3331C11.4602 16.9091 11.9802 15.7731 13.0202 14.9251C14.0602 14.0771 15.3482 13.6531 16.8842 13.6531C18.4202 13.6531 19.7082 14.0851 20.7482 14.9491C21.7882 15.7971 22.3082 16.8931 22.3082 18.2371C22.3082 19.6131 21.7162 20.7571 20.5322 21.6691C22.1322 22.7251 22.9322 24.1011 22.9322 25.7971ZM19.0202 18.3091C19.0202 17.7971 18.8122 17.3731 18.3962 17.0371C17.9962 16.7011 17.5002 16.5331 16.9082 16.5331C16.3002 16.5331 15.7882 16.7011 15.3722 17.0371C14.9722 17.3731 14.7722 17.7971 14.7722 18.3091C14.7722 18.8371 14.9802 19.2851 15.3962 19.6531C15.8122 20.0051 16.3322 20.2451 16.9562 20.3731C17.5642 20.2291 18.0602 19.9731 18.4442 19.6051C18.8282 19.2371 19.0202 18.8051 19.0202 18.3091ZM19.5962 25.7971C19.5962 25.1571 19.3322 24.6291 18.8042 24.2131C18.2922 23.7811 17.6362 23.4771 16.8362 23.3011C16.0522 23.4611 15.4122 23.7651 14.9162 24.2131C14.4362 24.6451 14.1962 25.1731 14.1962 25.7971C14.1962 26.4371 14.4522 26.9731 14.9642 27.4051C15.4922 27.8371 16.1402 28.0531 16.9082 28.0531C17.6762 28.0531 18.3162 27.8371 18.8282 27.4051C19.3402 26.9571 19.5962 26.4211 19.5962 25.7971ZM32.0772 18.9571C32.0772 17.2131 31.3412 16.3411 29.8692 16.3411C28.3972 16.3411 27.6612 17.2131 27.6612 18.9571V25.7251C27.6612 26.4291 27.8532 26.9891 28.2372 27.4051C28.6212 27.8211 29.1652 28.0291 29.8692 28.0291C30.5732 28.0291 31.1172 27.8211 31.5012 27.4051C31.8852 26.9891 32.0772 26.4291 32.0772 25.7251V18.9571ZM25.7172 15.0211C26.6452 13.9491 28.0292 13.4131 29.8692 13.4131C31.7092 13.4131 33.0932 13.9491 34.0212 15.0211C34.9492 16.0771 35.4132 17.4451 35.4132 19.1251V25.7251C35.4132 27.2451 34.9172 28.5011 33.9252 29.4931C32.9492 30.4851 31.5972 30.9811 29.8692 30.9811C28.1412 30.9811 26.7812 30.4851 25.7892 29.4931C24.8132 28.5011 24.3252 27.2451 24.3252 25.7251V19.1251C24.3252 17.4451 24.7892 16.0771 25.7172 15.0211Z" fill="#1D2E5B"/>
</svg>
