<svg width="46" height="45" viewBox="0 0 46 45" fill="none" xmlns="http://www.w3.org/2000/svg">
<path d="M22.584 1.5C25.3417 1.5 28.0725 2.04318 30.6203 3.09853C33.1682 4.15388 35.4832 5.70073 37.4332 7.65076C39.3833 9.60079 40.9301 11.9158 41.9855 14.4636C43.0408 17.0115 43.584 19.7422 43.584 22.5" stroke="#FF8D30" stroke-width="3" stroke-linecap="round"/>
<path d="M21.1802 29.488C21.1802 28.648 20.4602 28 19.5242 28H14.1722C15.4682 26.224 17.5802 24.736 19.1882 23.056C20.2922 21.904 21.0842 20.56 21.0842 18.52C21.0842 15.808 19.0442 13.648 15.5402 13.648C13.5962 13.648 10.1642 14.392 10.1642 16.144C10.1642 17.032 10.9802 17.608 11.7962 17.608C12.4922 17.608 12.9722 17.176 13.5002 16.96C14.0762 16.72 14.7002 16.576 15.5162 16.576C17.0042 16.576 17.7722 17.536 17.7722 18.76C17.7722 20.536 15.8522 21.904 14.5322 23.104C12.8282 24.64 11.0762 26.176 10.1162 28.288C9.94823 28.648 9.92423 29.08 9.92423 29.416C9.92423 30.304 10.6202 31 11.6282 31H19.5242C20.4602 31 21.1802 30.328 21.1802 29.488ZM33.9972 25.36C33.9972 21.976 31.6932 19.96 28.4052 19.96C27.8772 19.96 27.3252 20.008 26.8452 20.152L26.9892 17.032H31.4772C32.3412 17.032 33.3012 16.648 33.3012 15.568C33.3012 14.464 32.3412 14.056 31.4772 14.056H25.6932C24.8052 14.056 23.8932 14.656 23.8692 15.664L23.6292 22.288C23.6052 23.248 24.3492 23.92 25.3092 23.92C26.0772 23.92 27.0372 23.176 27.0372 23.176C27.4452 22.96 27.8292 22.864 28.3572 22.864C29.6532 22.864 30.6612 23.68 30.6612 25.456C30.6612 26.872 30.0132 28.288 27.8772 28.288C26.2692 28.288 25.5972 27.4 24.6612 27.4C23.7492 27.4 23.0532 28.096 23.0532 28.888C23.0532 30.88 27.3012 31.192 28.4292 31.192C32.3652 31.192 33.9972 28.144 33.9972 25.36Z" fill="#1D2E5B"/>
</svg>
