<svg width="51" height="50" viewBox="0 0 51 50" fill="none" xmlns="http://www.w3.org/2000/svg">
<ellipse cx="25.6102" cy="25" rx="24.9811" ry="25" fill="#F9EAEA"/>
<g clip-path="url(#clip0_3_974)">
<path d="M20.614 16.25C23.3744 16.25 25.6102 18.4438 25.6102 21.15C25.6102 18.4438 27.846 16.25 30.6064 16.25C33.3669 16.25 35.6027 18.4438 35.6027 21.15C35.6027 25.2288 31.5632 26.6675 26.0999 33.16C26.0397 33.2313 25.9647 33.2886 25.8802 33.3279C25.7956 33.3672 25.7035 33.3876 25.6102 33.3876C25.517 33.3876 25.4249 33.3672 25.3403 33.3279C25.2557 33.2886 25.1807 33.2313 25.1206 33.16C19.6572 26.6675 15.6178 25.2288 15.6178 21.15C15.6178 18.4438 17.8536 16.25 20.614 16.25Z" fill="#F02323"/>
</g>
<defs>
<clipPath id="clip0_3_974">
<rect width="19.9849" height="20" fill="white" transform="translate(15.6178 15)"/>
</clipPath>
</defs>
</svg>
