<svg width="64" height="64" viewBox="0 0 64 64" fill="none" xmlns="http://www.w3.org/2000/svg">
<path d="M4.06018 22.0373C1.95827 28.0119 1.79993 34.499 3.60783 40.5692C5.41573 46.6394 9.0971 51.9812 14.1245 55.8292C19.1519 59.6773 25.2674 61.8342 31.5948 61.9908C37.9221 62.1475 44.1367 60.2959 49.3481 56.7013C54.5595 53.1068 58.5003 47.9537 60.606 41.9804C62.7116 36.0071 62.874 29.5201 61.0699 23.4487C59.2657 17.3774 55.5877 12.0333 50.5627 8.18214C45.5377 4.33094 39.4236 2.17025 33.0963 2.00965" stroke="#FF8D30" stroke-width="3" stroke-linecap="round"/>
<path d="M31.8501 28.032C31.8501 29.536 31.2821 30.776 30.1461 31.752C29.0261 32.728 27.5861 33.216 25.8261 33.216C24.0821 33.216 22.6341 32.736 21.4821 31.776C20.3461 30.816 19.7781 29.6 19.7781 28.128C19.7781 26.448 20.5701 25.096 22.1541 24.072C20.9701 23.176 20.3781 22.008 20.3781 20.568C20.3781 19.144 20.8981 18.008 21.9381 17.16C22.9781 16.312 24.2661 15.888 25.8021 15.888C27.3381 15.888 28.6261 16.32 29.6661 17.184C30.7061 18.032 31.2261 19.128 31.2261 20.472C31.2261 21.848 30.6341 22.992 29.4501 23.904C31.0501 24.96 31.8501 26.336 31.8501 28.032ZM27.9381 20.544C27.9381 20.032 27.7301 19.608 27.3141 19.272C26.9141 18.936 26.4181 18.768 25.8261 18.768C25.2181 18.768 24.7061 18.936 24.2901 19.272C23.8901 19.608 23.6901 20.032 23.6901 20.544C23.6901 21.072 23.8981 21.52 24.3141 21.888C24.7301 22.24 25.2501 22.48 25.8741 22.608C26.4821 22.464 26.9781 22.208 27.3621 21.84C27.7461 21.472 27.9381 21.04 27.9381 20.544ZM28.5141 28.032C28.5141 27.392 28.2501 26.864 27.7221 26.448C27.2101 26.016 26.5541 25.712 25.7541 25.536C24.9701 25.696 24.3301 26 23.8341 26.448C23.3541 26.88 23.1141 27.408 23.1141 28.032C23.1141 28.672 23.3701 29.208 23.8821 29.64C24.4101 30.072 25.0581 30.288 25.8261 30.288C26.5941 30.288 27.2341 30.072 27.7461 29.64C28.2581 29.192 28.5141 28.656 28.5141 28.032ZM40.995 21.192C40.995 19.448 40.259 18.576 38.787 18.576C37.315 18.576 36.579 19.448 36.579 21.192V27.96C36.579 28.664 36.771 29.224 37.155 29.64C37.539 30.056 38.083 30.264 38.787 30.264C39.491 30.264 40.035 30.056 40.419 29.64C40.803 29.224 40.995 28.664 40.995 27.96V21.192ZM34.635 17.256C35.563 16.184 36.947 15.648 38.787 15.648C40.627 15.648 42.011 16.184 42.939 17.256C43.867 18.312 44.331 19.68 44.331 21.36V27.96C44.331 29.48 43.835 30.736 42.843 31.728C41.867 32.72 40.515 33.216 38.787 33.216C37.059 33.216 35.699 32.72 34.707 31.728C33.731 30.736 33.243 29.48 33.243 27.96V21.36C33.243 19.68 33.707 18.312 34.635 17.256Z" fill="#1D2E5B"/>
<line opacity="0.1" x1="15.349" y1="38.5" x2="49.3233" y2="38.5" stroke="black"/>
<g opacity="0.4" filter="url(#filter0_dd_3_1089)">
<path d="M20.3821 50.684V42.396C20.3821 42.2467 20.4334 42.1207 20.5361 42.018C20.6481 41.906 20.7787 41.85 20.9281 41.85C21.0867 41.85 21.2174 41.906 21.3201 42.018C21.4227 42.1207 21.4741 42.2467 21.4741 42.396V50.684C21.4741 50.992 21.5394 51.2113 21.6701 51.342C21.7354 51.426 21.7681 51.5147 21.7681 51.608C21.7681 51.748 21.7167 51.8693 21.6141 51.972C21.5207 52.0653 21.4041 52.112 21.2641 52.112C20.6761 52.112 20.3821 51.636 20.3821 50.684ZM25.7796 51.146C26.1809 51.146 26.6663 51.0153 27.2356 50.754C27.2916 50.726 27.3569 50.712 27.4316 50.712C27.5716 50.712 27.6883 50.7633 27.7816 50.866C27.8749 50.9593 27.9216 51.0713 27.9216 51.202C27.9216 51.51 27.6696 51.7387 27.1656 51.888C26.6616 52.0373 26.1576 52.112 25.6536 52.112C24.8789 52.112 24.2676 51.8973 23.8196 51.468C23.3809 51.0293 23.1616 50.4693 23.1616 49.788V47.17C23.1616 46.47 23.3856 45.9007 23.8336 45.462C24.2816 45.0233 24.9116 44.804 25.7236 44.804C26.4796 44.804 27.0536 45.0093 27.4456 45.42C27.8469 45.8213 28.0476 46.3767 28.0476 47.086C28.0476 48.4673 27.2589 49.158 25.6816 49.158C25.2243 49.158 24.7483 49.116 24.2536 49.032V49.858C24.2536 50.2593 24.3843 50.5767 24.6456 50.81C24.9069 51.034 25.2849 51.146 25.7796 51.146ZM26.9696 47.086C26.9696 46.2273 26.5449 45.798 25.6956 45.798C25.2476 45.798 24.8929 45.9147 24.6316 46.148C24.3796 46.372 24.2536 46.68 24.2536 47.072V48.136C24.7389 48.2013 25.2289 48.234 25.7236 48.234C26.2089 48.234 26.5356 48.1313 26.7036 47.926C26.8809 47.7113 26.9696 47.4313 26.9696 47.086ZM34.2716 45.532L32.3676 51.454C32.2183 51.8927 31.9803 52.112 31.6536 52.112C31.4669 52.112 31.3176 52.0653 31.2056 51.972C31.1029 51.8693 31.0143 51.7013 30.9396 51.468L28.9936 45.49C28.9376 45.3313 28.9703 45.1867 29.0916 45.056C29.2129 44.916 29.3576 44.846 29.5256 44.846C29.7683 44.846 29.9316 44.9673 30.0156 45.21L31.6536 50.488L33.2636 45.21C33.3476 44.9673 33.5109 44.846 33.7536 44.846C33.9216 44.846 34.0616 44.916 34.1736 45.056C34.2856 45.196 34.3183 45.3547 34.2716 45.532ZM37.8245 51.146C38.2259 51.146 38.7112 51.0153 39.2805 50.754C39.3365 50.726 39.4019 50.712 39.4765 50.712C39.6165 50.712 39.7332 50.7633 39.8265 50.866C39.9199 50.9593 39.9665 51.0713 39.9665 51.202C39.9665 51.51 39.7145 51.7387 39.2105 51.888C38.7065 52.0373 38.2025 52.112 37.6985 52.112C36.9239 52.112 36.3125 51.8973 35.8645 51.468C35.4259 51.0293 35.2065 50.4693 35.2065 49.788V47.17C35.2065 46.47 35.4305 45.9007 35.8785 45.462C36.3265 45.0233 36.9565 44.804 37.7685 44.804C38.5245 44.804 39.0985 45.0093 39.4905 45.42C39.8919 45.8213 40.0925 46.3767 40.0925 47.086C40.0925 48.4673 39.3039 49.158 37.7265 49.158C37.2692 49.158 36.7932 49.116 36.2985 49.032V49.858C36.2985 50.2593 36.4292 50.5767 36.6905 50.81C36.9519 51.034 37.3299 51.146 37.8245 51.146ZM39.0145 47.086C39.0145 46.2273 38.5899 45.798 37.7405 45.798C37.2925 45.798 36.9379 45.9147 36.6765 46.148C36.4245 46.372 36.2985 46.68 36.2985 47.072V48.136C36.7839 48.2013 37.2739 48.234 37.7685 48.234C38.2539 48.234 38.5805 48.1313 38.7485 47.926C38.9259 47.7113 39.0145 47.4313 39.0145 47.086ZM41.5051 50.684V42.396C41.5051 42.2467 41.5564 42.1207 41.6591 42.018C41.7711 41.906 41.9018 41.85 42.0511 41.85C42.2098 41.85 42.3404 41.906 42.4431 42.018C42.5458 42.1207 42.5971 42.2467 42.5971 42.396V50.684C42.5971 50.992 42.6624 51.2113 42.7931 51.342C42.8584 51.426 42.8911 51.5147 42.8911 51.608C42.8911 51.748 42.8398 51.8693 42.7371 51.972C42.6438 52.0653 42.5271 52.112 42.3871 52.112C41.7991 52.112 41.5051 51.636 41.5051 50.684Z" fill="black"/>
</g>
<defs>
<filter id="filter0_dd_3_1089" x="16.3821" y="41.85" width="30.509" height="18.262" filterUnits="userSpaceOnUse" color-interpolation-filters="sRGB">
<feFlood flood-opacity="0" result="BackgroundImageFix"/>
<feColorMatrix in="SourceAlpha" type="matrix" values="0 0 0 0 0 0 0 0 0 0 0 0 0 0 0 0 0 0 127 0" result="hardAlpha"/>
<feOffset dy="4"/>
<feGaussianBlur stdDeviation="2"/>
<feComposite in2="hardAlpha" operator="out"/>
<feColorMatrix type="matrix" values="0 0 0 0 0 0 0 0 0 0 0 0 0 0 0 0 0 0 0.25 0"/>
<feBlend mode="normal" in2="BackgroundImageFix" result="effect1_dropShadow_3_1089"/>
<feColorMatrix in="SourceAlpha" type="matrix" values="0 0 0 0 0 0 0 0 0 0 0 0 0 0 0 0 0 0 127 0" result="hardAlpha"/>
<feOffset dy="4"/>
<feGaussianBlur stdDeviation="2"/>
<feComposite in2="hardAlpha" operator="out"/>
<feColorMatrix type="matrix" values="0 0 0 0 0 0 0 0 0 0 0 0 0 0 0 0 0 0 0.25 0"/>
<feBlend mode="normal" in2="effect1_dropShadow_3_1089" result="effect2_dropShadow_3_1089"/>
<feBlend mode="normal" in="SourceGraphic" in2="effect2_dropShadow_3_1089" result="shape"/>
</filter>
</defs>
</svg>
