<svg width="46" height="45" viewBox="0 0 46 45" fill="none" xmlns="http://www.w3.org/2000/svg">
<path d="M23.5455 1.52201C28.9395 1.76918 34.0309 4.08455 37.7625 7.98727C41.4941 11.89 43.579 17.0801 43.5842 22.4797C43.5894 27.8793 41.5146 33.0735 37.7905 36.9834C34.0665 40.8933 28.9795 43.2185 23.586 43.4761C18.1925 43.7337 12.9071 41.9038 8.8274 38.3666C4.7477 34.8294 2.18727 29.8566 1.67788 24.4811C1.1685 19.1056 2.74929 13.7404 6.09197 9.49979C9.43464 5.25923 14.2823 2.46918 19.6282 1.7091" stroke="#FF8D30" stroke-width="3" stroke-linecap="round"/>
<path d="M14.9885 28.312C16.0285 28.328 16.7405 28.008 17.1245 27.352C17.5245 26.68 17.7725 25.68 17.8685 24.352C17.0685 24.832 16.2045 25.072 15.2765 25.072C13.7245 25.072 12.4285 24.6 11.3885 23.656C10.3485 22.696 9.82847 21.344 9.82847 19.6C9.82847 17.952 10.3245 16.584 11.3165 15.496C12.3085 14.408 13.7245 13.864 15.5645 13.864C16.6365 13.864 17.5565 14.064 18.3245 14.464C19.0925 14.864 19.6845 15.448 20.1005 16.216C20.5325 16.984 20.8365 17.848 21.0125 18.808C21.2045 19.768 21.3005 20.872 21.3005 22.12C21.3005 25.08 20.7965 27.336 19.7885 28.888C18.7965 30.44 17.2925 31.216 15.2765 31.216C14.9405 31.216 14.5725 31.192 14.1725 31.144C13.7885 31.112 13.3325 31.04 12.8045 30.928C12.2925 30.8 11.8525 30.6 11.4845 30.328C11.1325 30.056 10.9325 29.728 10.8845 29.344C10.8365 28.96 10.9485 28.616 11.2205 28.312C11.5085 28.008 11.8925 27.856 12.3725 27.856C12.6125 27.856 13.0045 27.928 13.5485 28.072C14.1085 28.216 14.5885 28.296 14.9885 28.312ZM17.9405 21.256V20.968C17.9405 18.264 17.1085 16.912 15.4445 16.912C14.6445 16.912 14.0605 17.168 13.6925 17.68C13.3405 18.176 13.1645 18.808 13.1645 19.576C13.1645 21.24 13.9485 22.072 15.5165 22.072C16.5405 22.072 17.3485 21.8 17.9405 21.256ZM27.9494 28.312C28.9894 28.328 29.7014 28.008 30.0854 27.352C30.4854 26.68 30.7334 25.68 30.8294 24.352C30.0294 24.832 29.1654 25.072 28.2374 25.072C26.6854 25.072 25.3894 24.6 24.3494 23.656C23.3094 22.696 22.7894 21.344 22.7894 19.6C22.7894 17.952 23.2854 16.584 24.2774 15.496C25.2694 14.408 26.6854 13.864 28.5254 13.864C29.5974 13.864 30.5174 14.064 31.2854 14.464C32.0534 14.864 32.6454 15.448 33.0614 16.216C33.4934 16.984 33.7974 17.848 33.9734 18.808C34.1654 19.768 34.2614 20.872 34.2614 22.12C34.2614 25.08 33.7574 27.336 32.7494 28.888C31.7574 30.44 30.2534 31.216 28.2374 31.216C27.9014 31.216 27.5334 31.192 27.1334 31.144C26.7494 31.112 26.2934 31.04 25.7654 30.928C25.2534 30.8 24.8134 30.6 24.4454 30.328C24.0934 30.056 23.8934 29.728 23.8454 29.344C23.7974 28.96 23.9094 28.616 24.1814 28.312C24.4694 28.008 24.8534 27.856 25.3334 27.856C25.5734 27.856 25.9654 27.928 26.5094 28.072C27.0694 28.216 27.5494 28.296 27.9494 28.312ZM30.9014 21.256V20.968C30.9014 18.264 30.0694 16.912 28.4054 16.912C27.6054 16.912 27.0214 17.168 26.6534 17.68C26.3014 18.176 26.1254 18.808 26.1254 19.576C26.1254 21.24 26.9094 22.072 28.4774 22.072C29.5014 22.072 30.3094 21.8 30.9014 21.256Z" fill="#1D2E5B"/>
</svg>
